<?xml version="1.0" encoding="UTF-8" standalone="no"?>
<!-- Created with Inkscape (http://www.inkscape.org/) -->

<svg
   xmlns:dc="http://purl.org/dc/elements/1.1/"
   xmlns:cc="http://creativecommons.org/ns#"
   xmlns:rdf="http://www.w3.org/1999/02/22-rdf-syntax-ns#"
   xmlns:svg="http://www.w3.org/2000/svg"
   xmlns="http://www.w3.org/2000/svg"
   xmlns:sodipodi="http://sodipodi.sourceforge.net/DTD/sodipodi-0.dtd"
   xmlns:inkscape="http://www.inkscape.org/namespaces/inkscape"
   width="225.78862mm"
   height="39.653572mm"
   viewBox="0 0 225.78862 39.653572"
   version="1.1"
   id="svg8"
   inkscape:version="0.92.3 (2405546, 2018-03-11)"
   sodipodi:docname="logo.svg">
  <defs
     id="defs2" />
  <sodipodi:namedview
     id="base"
     pagecolor="#ffffff"
     bordercolor="#666666"
     borderopacity="1.0"
     inkscape:pageopacity="0.0"
     inkscape:pageshadow="2"
     inkscape:zoom="1.4"
     inkscape:cx="510.15982"
     inkscape:cy="325.85414"
     inkscape:document-units="mm"
     inkscape:current-layer="layer1"
     showgrid="false"
     inkscape:window-width="2560"
     inkscape:window-height="1377"
     inkscape:window-x="1912"
     inkscape:window-y="-8"
     inkscape:window-maximized="1" />
  <metadata
     id="metadata5">
    <rdf:RDF>
      <cc:Work
         rdf:about="">
        <dc:format>image/svg+xml</dc:format>
        <dc:type
           rdf:resource="http://purl.org/dc/dcmitype/StillImage" />
        <dc:title></dc:title>
      </cc:Work>
    </rdf:RDF>
  </metadata>
  <g
     inkscape:label="Layer 1"
     inkscape:groupmode="layer"
     id="layer1"
     transform="translate(495.00569,-212.31217)">
    <path
       style="fill:#fec62f;stroke-width:0.26458335"
       d="m -483.92292,251.47394 c -0.58375,-0.35904 -2.15482,-2.82629 -5.93826,-9.32557 -4.61157,-7.92186 -5.14451,-8.9607 -5.14451,-10.02799 0,-1.06728 0.53294,-2.10612 5.14451,-10.02798 3.7654,-6.46829 5.35729,-8.96953 5.93826,-9.3304 0.74556,-0.46312 1.44782,-0.4888 11.56841,-0.42306 10.37412,0.0674 10.79418,0.0897 11.29988,0.59915 0.28887,0.29104 2.81565,4.45823 5.61506,9.26042 4.57332,7.84519 5.08952,8.85208 5.0866,9.92187 -0.003,1.0645 -0.54792,2.12694 -5.14493,10.02914 -3.78751,6.5107 -5.35074,8.96679 -5.93544,9.32557 -0.73565,0.45142 -1.55872,0.48707 -11.24479,0.48707 -9.69565,0 -10.50841,-0.0353 -11.24479,-0.48822 z m 15.1821,-8.53432 c 0.82609,-0.28798 1.61894,-1.37532 1.61894,-2.22028 0,-0.75495 -0.73703,-1.87359 -1.44781,-2.19744 -0.92883,-0.4232 -7.28805,-0.4232 -8.21687,0 -0.70077,0.31929 -1.44782,1.43993 -1.44782,2.17186 0,0.82088 0.6758,1.83299 1.4488,2.16978 1.0006,0.43596 6.85361,0.49131 8.04476,0.0761 z m 7.72471,-9.21138 c 0.52784,-0.52784 0.7734,-1.03834 0.7734,-1.60786 0,-0.56951 -0.24556,-1.08001 -0.7734,-1.60785 l -0.7734,-0.7734 h -10.88862 -10.88862 l -0.7734,0.7734 c -0.52784,0.52784 -0.7734,1.03834 -0.7734,1.60785 0,0.56952 0.24556,1.08002 0.7734,1.60786 l 0.7734,0.77339 h 10.88862 10.88862 z m -4.49792,-8.46667 c 0.82708,-0.82708 0.9869,-1.77094 0.4656,-2.74973 -0.63412,-1.1906 -0.83033,-1.22213 -7.65977,-1.23096 l -6.51235,-0.008 -0.69754,0.69754 c -0.97836,0.97836 -0.94866,2.26704 0.0759,3.29156 l 0.77339,0.7734 h 6.39071 6.39071 z m 24.95318,26.44326 c -0.30733,-0.12418 -0.81334,-0.5494 -1.12448,-0.94496 -0.56529,-0.71864 -0.56571,-0.7326 -0.56571,-18.70163 V 214.0758 l 0.93306,-0.93306 c 0.82527,-0.82527 1.04523,-0.91486 1.90401,-0.7755 0.53402,0.0867 1.275,0.46145 1.64662,0.83286 l 0.67568,0.6753 0.0774,7.79958 c 0.0426,4.28976 0.17203,7.79957 0.28766,7.79957 0.11562,0 0.71118,-0.47655 1.32346,-1.05899 4.37218,-4.15916 11.50405,-3.85694 16.06018,0.68057 2.60286,2.59221 3.80852,5.64358 3.80852,9.63884 0,6.31481 -3.43985,11.08307 -9.23601,12.80278 -1.81303,0.53793 -3.5144,0.54018 -5.85531,0.008 -1.992,-0.45307 -4.62524,-1.99633 -5.38511,-3.15604 -0.63841,-0.97434 -0.86633,-0.81357 -1.01317,0.71469 -0.20644,2.14843 -1.78442,3.30873 -3.53684,2.60067 z m 15.73638,-5.4344 c 1.62095,-0.88317 2.94443,-2.36815 3.65044,-4.09588 0.73712,-1.80386 0.67179,-5.52285 -0.12826,-7.30219 -1.60473,-3.56896 -5.52755,-5.46081 -9.31253,-4.49115 -4.21901,1.08086 -6.68291,4.75615 -6.25567,9.33129 0.2776,2.97285 2.09903,5.59181 4.77887,6.87138 1.17208,0.55964 1.64628,0.63241 3.59891,0.55221 1.8801,-0.0772 2.48173,-0.2192 3.66824,-0.86566 z m 20.4325,5.40667 c -1.55735,-0.30567 -3.8527,-1.71589 -4.91592,-3.02026 -2.20944,-2.71055 -2.50725,-4.27253 -2.51216,-13.17616 -0.004,-7.52383 0.1046,-8.26662 1.30435,-8.9087 0.90462,-0.48414 2.31275,-0.31854 3.10876,0.3656 l 0.74235,0.63803 0.1323,7.36562 0.13229,7.36561 0.75366,1.53485 c 0.48995,0.99778 1.09173,1.75708 1.7198,2.16996 2.99073,1.96607 7.35203,1.0514 9.27492,-1.94516 1.2888,-2.00842 1.60319,-4.07584 1.60848,-10.57739 l 0.005,-5.64275 0.77339,-0.7734 c 1.34025,-1.34025 3.52099,-0.95479 4.22588,0.74696 0.2238,0.54031 0.28895,3.77804 0.2349,11.67411 l -0.0748,10.92644 -0.86407,0.77184 c -1.19844,1.07052 -2.23651,1.03146 -3.39572,-0.12775 -0.73051,-0.73051 -0.89958,-1.10347 -0.89958,-1.98437 0,-0.59664 -0.1227,-1.08479 -0.27267,-1.08479 -0.14997,0 -0.62202,0.39789 -1.04901,0.88421 -2.04638,2.33069 -6.32755,3.52456 -10.03175,2.7975 z m 22.99509,-0.0513 c -0.3638,-0.18179 -0.86963,-0.74558 -1.12407,-1.25287 -0.41678,-0.83101 -0.46265,-1.94709 -0.46302,-11.26778 -2.6e-4,-6.69575 0.0999,-10.6332 0.28397,-11.16119 0.61385,-1.76088 2.87821,-2.22673 4.23389,-0.87104 0.51967,0.51967 0.7734,1.04048 0.7734,1.5875 0,1.07458 0.33836,1.02683 1.45104,-0.20478 0.50628,-0.56039 1.66683,-1.42359 2.579,-1.91823 1.55504,-0.84324 1.81531,-0.89935 4.17204,-0.89935 2.21611,0 2.69169,0.0875 4.01905,0.73931 0.91077,0.44725 2.04129,1.32555 2.86181,2.22332 l 1.3563,1.48402 1.50382,-1.48313 c 0.86943,-0.85747 2.1735,-1.79538 3.09132,-2.22332 1.43586,-0.66949 1.8655,-0.74019 4.49791,-0.74011 3.59876,1e-4 4.98582,0.52868 7.0135,2.67264 2.62246,2.77287 2.96484,4.52245 2.85465,14.58739 -0.0746,6.81434 -0.10661,7.21377 -0.63466,7.92046 -1.05027,1.40559 -3.34029,1.39715 -4.15037,-0.0153 -0.22266,-0.38822 -0.36104,-2.98411 -0.45291,-8.49652 -0.13099,-7.85973 -0.13877,-7.94905 -0.79375,-9.11637 -0.91878,-1.63748 -2.44166,-2.64744 -4.27772,-2.83694 -2.92345,-0.30172 -5.2124,1.05633 -6.54549,3.88352 -0.6749,1.43132 -0.68834,1.57613 -0.81846,8.81964 l -0.13229,7.36442 -0.89622,0.80024 c -0.75375,0.67303 -1.0459,0.77595 -1.83786,0.64743 -0.5179,-0.0841 -1.2457,-0.45658 -1.61732,-0.82784 l -0.67568,-0.67503 -0.13229,-7.99829 c -0.13108,-7.9247 -0.13838,-8.00912 -0.79375,-9.17715 -1.90899,-3.40228 -6.44199,-3.91372 -9.30577,-1.04993 -1.95945,1.95945 -2.14261,2.83729 -2.25916,10.82776 -0.0589,4.03795 -0.21525,7.04403 -0.38942,7.48696 -0.30067,0.76462 -1.41966,1.51181 -2.25387,1.50498 -0.26189,-0.002 -0.77381,-0.15263 -1.13762,-0.33441 z m 45.05876,-0.17978 c -0.58943,-0.35941 -0.9331,-0.83794 -1.13185,-1.57604 -0.19415,-0.72099 -0.2619,-6.59885 -0.21189,-18.38139 0.0722,-17.02105 0.083,-17.33413 0.61879,-18.05161 1.02201,-1.36852 2.74067,-1.47037 3.97544,-0.2356 l 0.63867,0.63867 0.004,7.6188 c 0.002,4.19034 0.098,7.76673 0.21283,7.94754 0.14877,0.23426 0.5088,0.0213 1.25272,-0.74088 3.47778,-3.56333 9.34557,-4.18661 13.95932,-1.48277 1.59146,0.93266 3.95914,3.55655 4.78552,5.30337 1.43276,3.02861 1.77806,5.99551 1.08087,9.28692 -0.99863,4.71443 -4.39222,8.46409 -8.84177,9.76947 -3.68652,1.08153 -8.00732,0.0273 -10.87257,-2.65281 -1.34922,-1.26204 -1.58097,-1.1935 -1.58097,0.46762 0,1.06888 -0.39459,1.72986 -1.31762,2.20718 -1.01995,0.52744 -1.55244,0.50291 -2.57154,-0.11847 z m 15.15297,-4.68783 c 1.77329,-0.60304 4.0939,-2.92365 4.69694,-4.69695 0.61851,-1.81877 0.58682,-5.05989 -0.0663,-6.77868 -1.03165,-2.71509 -2.67333,-4.16004 -5.57573,-4.90754 -1.46421,-0.37711 -1.95359,-0.39516 -3.29302,-0.12146 -2.16923,0.44325 -3.3095,1.08448 -4.72176,2.65525 -1.50171,1.67026 -2.12894,3.45134 -2.11253,5.99872 0.0237,3.67092 2.04272,6.58821 5.4971,7.9426 1.18241,0.4636 4.08226,0.41578 5.57527,-0.0919 z m 18.7835,4.67132 c -1.65484,-0.6461 -3.38278,-2.33283 -4.16891,-4.06947 l -0.61069,-1.34906 V 230.0893 c 0,-15.66572 0.009,-15.93343 0.54527,-16.65207 1.03907,-1.39185 2.7817,-1.47305 3.9752,-0.18525 l 0.63891,0.68939 v 15.18341 c 0,16.65096 -0.005,16.5917 1.55351,17.39779 0.47043,0.24327 1.46779,0.41445 2.41473,0.41445 1.40471,0 1.69715,0.0905 2.2621,0.70009 0.7982,0.86127 0.85119,2.14627 0.12652,3.06755 -0.99714,1.26766 -4.40675,1.63453 -6.73664,0.72485 z m 17.87094,0.26489 c -3.29287,-0.69335 -6.89506,-3.38252 -8.4574,-6.31376 -2.85134,-5.34967 -1.86298,-12.26933 2.32277,-16.26185 2.76549,-2.63784 5.76965,-3.73058 9.80993,-3.5683 2.33051,0.0936 2.76168,0.19654 4.57321,1.09185 2.4576,1.21462 4.15022,2.99071 5.38904,5.65485 0.92801,1.99572 1.66913,4.68235 1.67571,6.07462 0.007,1.54342 0.0196,1.54142 -10.42128,1.68604 l -9.55085,0.1323 0.0692,0.87462 c 0.10725,1.35656 1.23615,3.31408 2.60724,4.52096 1.61676,1.42313 3.53502,2.00874 5.76226,1.75912 2.20891,-0.24756 3.52317,-0.88548 5.12552,-2.48782 1.13187,-1.13188 1.51881,-1.35959 2.31026,-1.35959 1.25978,0 2.24953,0.96126 2.24953,2.18481 0,1.83537 -2.73958,4.37515 -5.95313,5.51896 -1.79583,0.63921 -5.62466,0.89058 -7.51196,0.49319 z m 9.75844,-16.20061 c -0.001,-0.32742 -0.36468,-1.22689 -0.80736,-1.99883 -0.95781,-1.6702 -2.56755,-2.79181 -4.68779,-3.2663 -2.91877,-0.6532 -6.4929,0.93803 -7.99678,3.56021 -1.40184,2.44428 -1.79953,2.30023 6.35066,2.30023 h 7.14375 l -0.002,-0.59531 z"
       id="path826"
       inkscape:connector-curvature="0" />
  </g>
</svg>
